<svg xmlns="http://www.w3.org/2000/svg" xmlns:xlink="http://www.w3.org/1999/xlink" width="126" height="34" viewBox="0 0 126 34">
    <defs>
        <path id="a" d="M4.968 4.94H.044V.006h4.924V4.94z"/>
        <path id="c" d="M4.979 4.94H.055V.006h4.924V4.94z"/>
        <path id="e" d="M4.957 4.94H.034V.006h4.923V4.94z"/>
        <path id="g" d="M0 33.395h125.916V.087H0z"/>
    </defs>
    <g fill="none" fill-rule="evenodd">
        <g transform="translate(0 .012)">
            <g transform="translate(25.93 28.455)">
                <mask id="b" fill="#fff">
                    <use xlink:href="#a"/>
                </mask>
                <path fill="#FFF" d="M4.968 2.473a2.463 2.463 0 0 1-4.924 0 2.463 2.463 0 1 1 4.924 0" mask="url(#b)"/>
            </g>
            <g transform="translate(16.07 28.455)">
                <mask id="d" fill="#fff">
                    <use xlink:href="#c"/>
                </mask>
                <path fill="#FFF" d="M4.979 2.473a2.463 2.463 0 0 1-4.924 0 2.463 2.463 0 1 1 4.924 0" mask="url(#d)"/>
            </g>
            <g transform="translate(35.789 28.455)">
                <mask id="f" fill="#fff">
                    <use xlink:href="#e"/>
                </mask>
                <path fill="#FFF" d="M4.957 2.473a2.462 2.462 0 0 1-4.923 0 2.462 2.462 0 1 1 4.923 0" mask="url(#f)"/>
            </g>
            <mask id="h" fill="#fff">
                <use xlink:href="#g"/>
            </mask>
            <path fill="#FFF" d="M63.609 24.898h2.28v-2.286h-2.28zM94.09 24.906h2.281v-2.287h-2.28zM73.698 25.1c-4.475 0-7.254-3.236-7.254-8.446 0-5.21 2.779-8.445 7.254-8.445 2.344 0 3.768.663 5.439 2.535l.098.11-1.393 1.278-.1-.114c-1.33-1.494-2.35-1.998-4.044-1.998-1.834 0-3.235.7-4.166 2.083-.788 1.151-1.08 2.385-1.08 4.55 0 2.167.292 3.4 1.08 4.55.93 1.384 2.332 2.085 4.166 2.085 1.664 0 2.686-.504 4.043-2l.1-.11 1.394 1.275-.098.111c-1.67 1.872-3.094 2.535-5.44 2.535M86.844 10.02c-1.27 0-2.362.448-3.246 1.333-1.287 1.292-1.397 3.414-1.397 5.3 0 1.888.11 4.01 1.397 5.302.884.885 1.976 1.333 3.246 1.333s2.363-.448 3.247-1.333c1.288-1.292 1.397-3.414 1.397-5.301s-.109-4.009-1.397-5.3c-.884-.886-1.976-1.334-3.247-1.334m0 15.08c-1.842 0-3.388-.615-4.596-1.825-1.82-1.825-2.054-4.497-2.054-6.621 0-2.124.234-4.796 2.054-6.62 1.208-1.212 2.754-1.825 4.596-1.825 1.843 0 3.389.613 4.597 1.824 1.821 1.825 2.055 4.497 2.055 6.62 0 2.125-.234 4.797-2.055 6.622-1.208 1.21-2.754 1.824-4.597 1.824M103.523 25.1c-1.832 0-3.31-.535-4.395-1.588-1.14-1.11-1.72-2.66-1.72-4.608V8.411h2.008V18.6c0 3.067 1.49 4.687 4.308 4.687 2.843 0 4.408-1.664 4.408-4.686V8.41h2.009v16.487h-2.009v-1.676c-1.198 1.246-2.746 1.877-4.61 1.877M125.916 24.898h-2.47l-5.497-8.799-3.519 4.07v4.729h-2.007V.687h2.007v16.61l7.793-8.886h2.577l-5.473 6.208z" mask="url(#h)"/>
        </g>
        <path fill="#FCFCFC" d="M4.314 24.92H0V6.991h4.314v1.16c1.07-.903 2.416-1.361 4.013-1.361 1.358 0 2.655.472 3.856 1.403l.37.287-3.055 3.642-.34-.258c-.654-.496-1.318-.748-1.974-.748-.904 0-1.588.275-2.096.841-.52.58-.774 1.323-.774 2.268V24.92zM16.787 13.968h6.212c-.096-.84-.363-1.528-.798-2.048-.564-.684-1.317-1.014-2.303-1.014-.988 0-1.732.31-2.272.95-.479.564-.757 1.26-.84 2.112m3.65 11.143c-2.68 0-4.739-.882-6.117-2.62-1.244-1.552-1.874-3.738-1.874-6.494 0-2.566.568-4.697 1.687-6.333 1.336-1.914 3.276-2.883 5.766-2.883 2.15 0 3.95.742 5.35 2.205 1.395 1.457 2.103 3.284 2.103 5.432v3.272H16.777c.07.971.377 1.73.932 2.311.632.664 1.501.987 2.658.987 1.292 0 2.406-.494 3.4-1.51l.293-.3 3.142 2.681-.297.343c-1.668 1.93-3.845 2.91-6.47 2.91M33.976 13.968h6.212c-.096-.84-.363-1.528-.8-2.048-.564-.684-1.317-1.014-2.302-1.014-.987 0-1.731.31-2.271.95-.479.564-.757 1.26-.84 2.112m3.647 11.143c-2.679 0-4.736-.882-6.115-2.62-1.244-1.552-1.875-3.738-1.875-6.494 0-2.566.568-4.697 1.688-6.333 1.337-1.914 3.275-2.883 5.766-2.883 2.15 0 3.95.742 5.35 2.205 1.395 1.457 2.103 3.284 2.103 5.432v3.272H33.963c.073.971.38 1.73.933 2.311.632.664 1.503.987 2.658.987 1.293 0 2.406-.494 3.401-1.51l.293-.3 3.142 2.681-.296.343c-1.668 1.93-3.846 2.91-6.472 2.91M54.108 11.107c-1.269 0-2.087.46-2.503 1.41-.288.655-.432 1.803-.432 3.412 0 1.611.144 2.76.432 3.414.417.971 1.236 1.442 2.503 1.442 1.225 0 2.034-.473 2.473-1.447.284-.689.43-1.84.43-3.409 0-1.565-.146-2.704-.434-3.384-.435-.964-1.244-1.438-2.469-1.438m-1.037 14.004c-2.014 0-3.666-.803-4.912-2.387-.631-.828-1.033-1.953-1.2-3.35-.068-.556-.102-1.684-.102-3.445 0-1.737.034-2.854.104-3.414.165-1.391.567-2.517 1.195-3.34 1.25-1.59 2.9-2.394 4.915-2.394 1.356 0 2.677.499 3.94 1.483V.1h4.316v24.81h-4.316v-1.186c-1.132.922-2.454 1.388-3.94 1.388"/>
    </g>
</svg>
